# xmcd
#
# Track frame offsets:
#	150
#	23040
#	41875
#	54952
#	65499
#	79841
#	89670
#	104023
#	116825
#	131298
#	142896
#	156224
#	168908
#	180610
#	197138
#	211760
#	229219
#	241369
#	256308
#
# Disc length: 3598 seconds
#
# Revision: 0
# Processed by: cddbd v1.5.1PL0 Copyright (c) Steve Scherf et al.
# Submitted via: dBpowerAMP V4.0
#
DISCID=090e0c13
DTITLE=ji myoung - bbong jjack
DYEAR=2005
DGENRE=Acid Jazz
TTITLE0=daf
TTITLE1=dasfasdf
TTITLE2=2
TTITLE3=3
TTITLE4=4
TTITLE5=5
TTITLE6=6
TTITLE7=6
TTITLE8=7
TTITLE9=8
TTITLE10=2
TTITLE11=4
TTITLE12=6
TTITLE13=3
TTITLE14=5
TTITLE15=4
TTITLE16=6
TTITLE17=7
TTITLE18=5
EXTD=yududyudu
EXTT0=
EXTT1=
EXTT2=
EXTT3=
EXTT4=
EXTT5=
EXTT6=
EXTT7=
EXTT8=
EXTT9=
EXTT10=
EXTT11=
EXTT12=
EXTT13=
EXTT14=
EXTT15=
EXTT16=
EXTT17=
EXTT18=
PLAYORDER=
